<svg width="16" height="16" viewBox="0 0 16 16" fill="none" xmlns="http://www.w3.org/2000/svg">
<ellipse cx="7.99943" cy="8.42094" rx="3.78947" ry="3.78947" fill="white"/>
<path d="M2.66634 2.66658H4.66634L5.99967 1.33325H9.99967L11.333 2.66658H13.333C13.6866 2.66658 14.0258 2.80706 14.2758 3.05711C14.5259 3.30716 14.6663 3.6463 14.6663 3.99992V11.9999C14.6663 12.3535 14.5259 12.6927 14.2758 12.9427C14.0258 13.1928 13.6866 13.3332 13.333 13.3332H2.66634C2.31272 13.3332 1.97358 13.1928 1.72353 12.9427C1.47348 12.6927 1.33301 12.3535 1.33301 11.9999V3.99992C1.33301 3.6463 1.47348 3.30716 1.72353 3.05711C1.97358 2.80706 2.31272 2.66658 2.66634 2.66658V2.66658ZM7.99967 4.66658C7.11562 4.66658 6.26777 5.01777 5.64265 5.64289C5.01753 6.26802 4.66634 7.11586 4.66634 7.99992C4.66634 8.88397 5.01753 9.73182 5.64265 10.3569C6.26777 10.9821 7.11562 11.3332 7.99967 11.3332C8.88373 11.3332 9.73158 10.9821 10.3567 10.3569C10.9818 9.73182 11.333 8.88397 11.333 7.99992C11.333 7.11586 10.9818 6.26802 10.3567 5.64289C9.73158 5.01777 8.88373 4.66658 7.99967 4.66658V4.66658ZM7.99967 5.99992C8.53011 5.99992 9.03882 6.21063 9.41389 6.5857C9.78896 6.96078 9.99967 7.46948 9.99967 7.99992C9.99967 8.53035 9.78896 9.03906 9.41389 9.41413C9.03882 9.7892 8.53011 9.99992 7.99967 9.99992C7.46924 9.99992 6.96053 9.7892 6.58546 9.41413C6.21039 9.03906 5.99967 8.53035 5.99967 7.99992C5.99967 7.46948 6.21039 6.96078 6.58546 6.5857C6.96053 6.21063 7.46924 5.99992 7.99967 5.99992V5.99992Z" fill="#444856"/>
</svg>
